inDegrees=yes
name=ik_S54_A13_T02
DataType=double
version=3
OpenSimVersion=4.3-2021-08-27-4bc7ad9
endheader
time	pelvis_tilt	pelvis_list	pelvis_rotation	pelvis_tx	pelvis_ty	pelvis_tz	hip_flexion_r	hip_adduction_r	hip_rotation_r	knee_angle_r	knee_angle_r_beta	ankle_angle_r	subtalar_angle_r	mtp_angle_r	hip_flexion_l	hip_adduction_l	hip_rotation_l	knee_angle_l	knee_angle_l_beta	ankle_angle_l	subtalar_angle_l	mtp_angle_l	lumbar_extension	lumbar_bending	lumbar_rotation	arm_flex_r	arm_add_r	arm_rot_r	elbow_flex_r	pro_sup_r	wrist_flex_r	wrist_dev_r	arm_flex_l	arm_add_l	arm_rot_l	elbow_flex_l	pro_sup_l	wrist_flex_l	wrist_dev_l
8.699999999999903	1.723740651824616	2.456881269778865	27.03968751345032	0	0.9399999999999999	0	30.73655095907576	-9.399915725958095	-8.656752776274157	36.13368855676687	0.6306518362057799	0	0	0	30.73655095907576	-9.399915725958095	-8.656752776274157	36.13368855676687	0.6306518362057799	0	0	0	3.16464616306475	0.4038972465375458	-2.560044770447548	78.62264824057914	-3.786995718580393	7.099114872983757	74.62207361987983	-7.727525107230354	0	0	82.50871299665764	-36.05995014184026	48.32156868633171	59.72862310500278	112.6931463231729	0	0
8.719999999999903	1.738076390414913	2.469196113275239	27.05556121546602	0	0.9399999999999999	0	30.75956647306415	-9.403161993547229	-8.661427781884498	36.15514288385945	0.6310262848523451	0	0	0	30.75956647306415	-9.403161993547229	-8.661427781884498	36.15514288385945	0.6310262848523451	0	0	0	3.183810398658503	0.408084845821194	-2.573453104031184	78.48480947518131	-3.680147418007143	7.369114184730513	73.83729282832306	-5.298183902773447	0	0	82.60993602693959	-36.40121760145197	48.45965960602955	59.97584090758531	113.063291793503	0	0
8.739999999999903	1.773339946823728	2.499927107218453	27.12530360412823	0	0.9399999999999999	0	30.76876564430261	-9.404463159518242	-8.663299546240555	36.16370025857718	0.6311756392164964	0	0	0	30.76876564430261	-9.404463159518242	-8.663299546240555	36.16370025857718	0.6311756392164964	0	0	0	3.230430058853336	0.4169185281474491	-2.616334633340879	78.39189247592526	-3.535065400611742	7.630250584770658	73.40674753041229	-4.362872054113393	0	0	82.73497145434168	-36.76747238489319	48.56282750227079	60.16040782170636	112.7282203997669	0	0
8.759999999999902	1.769955880184603	2.568084172562307	27.18675639327449	0	0.9399999999999999	0	30.78086355151674	-9.406169907304962	-8.665757768923356	36.17496443336041	0.631372236153984	0	0	0	30.78086355151674	-9.406169907304962	-8.665757768923356	36.17496443336041	0.631372236153984	0	0	0	3.258571006306129	0.479461525864191	-2.631038445564938	78.51377633465864	-3.525511427678728	7.850720548689858	72.61443858160052	-2.554309638499364	0	0	82.8321673448033	-37.11295600709704	48.54084179822807	60.37862098645311	112.7969341164105	0	0
8.779999999999902	1.790346476398763	2.589090744125458	26.87940021157435	0	0.9399999999999999	0	31.23614308331718	-9.448642362837342	-8.738167849548258	36.7247736830478	0.6409682178189485	0	0	0	31.23614308331718	-9.448642362837342	-8.738167849548258	36.7247736830478	0.6409682178189485	0	0	0	3.26050221536099	0.5346797017868019	-2.289594070524849	78.7409261061684	-3.539483079400229	7.695030837214399	70.96820047289094	2.678272670859551	0	0	82.82155938281352	-37.44631964523413	48.48496119715386	60.65297666457163	112.6481393618243	0	0
8.799999999999901	1.824050834231485	2.665582968049528	27.00485683892562	0	0.9399999999999999	0	31.23989203850214	-9.449136410652951	-8.738900232011787	36.72835382426893	0.6410307030709436	0	0	0	31.23989203850214	-9.449136410652951	-8.738900232011787	36.72835382426893	0.6410307030709436	0	0	0	3.326960219993264	0.5840830577582063	-2.341631402683615	78.8583735601469	-3.795814026121616	7.652005047177624	70.86053988766662	2.510529085602426	0	0	82.48332794654526	-37.77255380590857	48.3694542514172	61.05623318616475	111.7097466271042	0	0
8.819999999999901	1.850087806336659	2.672910944893123	26.53378499001868	0	0.9399999999999999	0	31.7128444428012	-9.491502980925679	-8.812451893385873	37.30100838347182	0.6510254106055909	0	0	0	31.7128444428012	-9.491502980925679	-8.812451893385873	37.30100838347182	0.6510254106055909	0	0	0	3.322404386360806	0.6342196271372772	-1.87700998976105	79.05205248142649	-3.711397597461772	6.964982258390451	68.94564203578602	8.371057541603022	0	0	82.34728121231716	-38.17670622542931	48.16700311956695	61.24787892185331	110.4137498051391	0	0
